<svg width="512" height="512" viewBox="0 0 512 512" fill="none" xmlns="http://www.w3.org/2000/svg">
  <!-- Background Circle -->
  <circle cx="256" cy="256" r="256" fill="#10b981"/>
  
  <!-- Thai Temple Icon -->
  <g transform="translate(128, 128)">
    <!-- Temple Base -->
    <rect x="50" y="200" width="156" height="40" fill="white" rx="6"/>
    
    <!-- Temple Body -->
    <rect x="60" y="150" width="136" height="50" fill="white" rx="10"/>
    
    <!-- Temple Roof -->
    <path d="M40 150 L128 100 L216 150 L196 140 L128 110 L60 140 Z" fill="#fbbf24"/>
    
    <!-- Temple Spire -->
    <rect x="122" y="80" width="12" height="30" fill="#fbbf24"/>
    <circle cx="128" cy="75" r="8" fill="#f59e0b"/>
    
    <!-- Temple Details -->
    <rect x="104" y="165" width="48" height="30" fill="#10b981" rx="6"/>
    <circle cx="128" cy="180" r="6" fill="white"/>
    
    <!-- Side Decorations -->
    <rect x="70" y="170" width="6" height="20" fill="#f59e0b"/>
    <rect x="180" y="170" width="6" height="20" fill="#f59e0b"/>
    
    <!-- Additional Temple Details -->
    <rect x="80" y="175" width="16" height="4" fill="#f59e0b" rx="2"/>
    <rect x="160" y="175" width="16" height="4" fill="#f59e0b" rx="2"/>
  </g>
  
  <!-- Location Pin -->
  <g transform="translate(320, 320)">
    <path d="M32 5C21.7 5 13 13.7 13 24c0 14 19 35 19 35s19-21 19-35c0-10.3-8.7-19-19-19z" fill="#ef4444"/>
    <circle cx="32" cy="24" r="7" fill="white"/>
  </g>
  
  <!-- Travel Path -->
  <path d="M160 380 Q220 320 280 380 Q340 440 400 380" stroke="white" stroke-width="8" fill="none" stroke-dasharray="15,15"/>
  
  <!-- Additional Decorative Elements -->
  <g transform="translate(80, 350)">
    <!-- Small Thai Elements -->
    <circle cx="20" cy="20" r="8" fill="#fbbf24" opacity="0.7"/>
    <circle cx="60" cy="10" r="6" fill="#f59e0b" opacity="0.7"/>
    <circle cx="40" cy="35" r="5" fill="#fbbf24" opacity="0.7"/>
  </g>
  
  <g transform="translate(350, 100)">
    <!-- Small Thai Elements -->
    <circle cx="20" cy="20" r="8" fill="#fbbf24" opacity="0.7"/>
    <circle cx="60" cy="10" r="6" fill="#f59e0b" opacity="0.7"/>
    <circle cx="40" cy="35" r="5" fill="#fbbf24" opacity="0.7"/>
  </g>
</svg>