<svg width="192" height="192" viewBox="0 0 192 192" fill="none" xmlns="http://www.w3.org/2000/svg">
  <!-- Background Circle -->
  <circle cx="96" cy="96" r="96" fill="#10b981"/>
  
  <!-- Thai Temple Icon -->
  <g transform="translate(48, 48)">
    <!-- Temple Base -->
    <rect x="20" y="80" width="56" height="16" fill="white" rx="2"/>
    
    <!-- Temple Body -->
    <rect x="24" y="60" width="48" height="20" fill="white" rx="4"/>
    
    <!-- Temple Roof -->
    <path d="M16 60 L48 40 L80 60 L72 56 L48 44 L24 56 Z" fill="#fbbf24"/>
    
    <!-- Temple Spire -->
    <rect x="46" y="32" width="4" height="12" fill="#fbbf24"/>
    <circle cx="48" cy="30" r="3" fill="#f59e0b"/>
    
    <!-- Temple Details -->
    <rect x="40" y="65" width="16" height="12" fill="#10b981" rx="2"/>
    <circle cx="48" cy="71" r="2" fill="white"/>
    
    <!-- Side Decorations -->
    <rect x="28" y="68" width="2" height="8" fill="#f59e0b"/>
    <rect x="66" y="68" width="2" height="8" fill="#f59e0b"/>
  </g>
  
  <!-- Location Pin -->
  <g transform="translate(120, 120)">
    <path d="M12 2C8.13 2 5 5.13 5 9c0 5.25 7 13 7 13s7-7.75 7-13c0-3.87-3.13-7-7-7z" fill="#ef4444"/>
    <circle cx="12" cy="9" r="2.5" fill="white"/>
  </g>
  
  <!-- Travel Path -->
  <path d="M60 140 Q80 120 100 140 Q120 160 140 140" stroke="white" stroke-width="3" fill="none" stroke-dasharray="5,5"/>
</svg>